<?xml version="1.0" ?><svg id="Placeholder" style="enable-background:new 0 0 32 32;" version="1.1" viewBox="0 0 32 32" xml:space="preserve" xmlns="http://www.w3.org/2000/svg" xmlns:xlink="http://www.w3.org/1999/xlink"><style type="text/css">
	.st0{fill:#F25949;}
	.st1{fill:#A52E21;}
</style><g><path class="st0" d="M16,2C9.659,2,4.5,7.109,4.5,13.389c0,4.566,5.752,11.716,9.182,15.573C14.269,29.621,15.114,30,16,30   s1.731-0.379,2.318-1.038c3.429-3.855,9.182-11.006,9.182-15.573C27.5,7.109,22.341,2,16,2z M16,8.452c2.757,0,5,2.215,5,4.937   s-2.243,4.937-5,4.937s-5-2.215-5-4.937S13.243,8.452,16,8.452z"/><path class="st1" d="M13,14.389h2v1.969c0,0.552,0.448,1,1,1s1-0.447,1-1v-1.969h2c0.553,0,1-0.448,1-1s-0.447-1-1-1h-2v-1.968   c0-0.552-0.448-1-1-1s-1,0.448-1,1v1.968h-2c-0.552,0-1,0.448-1,1S12.448,14.389,13,14.389z"/></g></svg>